<?xml version="1.0" encoding="UTF-8" standalone="no"?>
<!-- Created with Inkscape (http://www.inkscape.org/) -->
<svg
   xmlns:dc="http://purl.org/dc/elements/1.1/"
   xmlns:cc="http://creativecommons.org/ns#"
   xmlns:rdf="http://www.w3.org/1999/02/22-rdf-syntax-ns#"
   xmlns:svg="http://www.w3.org/2000/svg"
   xmlns="http://www.w3.org/2000/svg"
   xmlns:sodipodi="http://sodipodi.sourceforge.net/DTD/sodipodi-0.dtd"
   xmlns:inkscape="http://www.inkscape.org/namespaces/inkscape"
   width="350.00003"
   height="351.11401"
   id="svg6305"
   sodipodi:version="0.32"
   inkscape:version="0.46"
   version="1.0"
   sodipodi:docname="Cartography_of_Europe.svg"
   inkscape:output_extension="org.inkscape.output.svg.inkscape">
  <defs
     id="defs6307">
    <linearGradient
       id="linearGradient15386">
      <stop
         style="stop-color:#35a5ec;stop-opacity:1"
         offset="0"
         id="stop15388" />
      <stop
         style="stop-color:#2681da;stop-opacity:1"
         offset="1"
         id="stop15390" />
    </linearGradient>
    <inkscape:perspective
       sodipodi:type="inkscape:persp3d"
       inkscape:vp_x="0 : 526.18109 : 1"
       inkscape:vp_y="0 : 1000 : 0"
       inkscape:vp_z="744.09448 : 526.18109 : 1"
       inkscape:persp3d-origin="372.04724 : 350.78739 : 1"
       id="perspective6313" />
  </defs>
  <sodipodi:namedview
     id="base"
     pagecolor="#ffffff"
     bordercolor="#666666"
     borderopacity="1.0"
     inkscape:pageopacity="0.0"
     inkscape:pageshadow="2"
     inkscape:zoom="1.8852283"
     inkscape:cx="152.04787"
     inkscape:cy="142.95351"
     inkscape:document-units="px"
     inkscape:current-layer="layer1"
     showgrid="false"
     inkscape:window-width="1280"
     inkscape:window-height="744"
     inkscape:window-x="0"
     inkscape:window-y="22" />
  <metadata
     id="metadata6310">
    <rdf:RDF>
      <cc:Work
         rdf:about="">
        <dc:format>image/svg+xml</dc:format>
        <dc:type
           rdf:resource="http://purl.org/dc/dcmitype/StillImage" />
      </cc:Work>
    </rdf:RDF>
  </metadata>
  <g
     inkscape:label="Capa 1"
     inkscape:groupmode="layer"
     id="layer1"
     transform="translate(426.42858,146.05196)">
    <path
       style="fill:#003399;fill-opacity:1;fill-rule:evenodd;stroke:none;stroke-width:0.20000000000000001;stroke-linecap:butt;stroke-linejoin:miter;stroke-miterlimit:4;stroke-dasharray:none;stroke-opacity:1"
       d="M -212.59031,-146.05196 L -214.51451,-144.12777 L -213.04603,-142.6593 L -212.59031,-142.20358 L -212.59031,-146.05196 z M -212.59031,-141.24148 L -215.4766,-140.22876 L -213.04603,-138.81094 L -212.59031,-141.24148 z M -223.62909,-139.77303 L -225.09756,-133.49409 L -222.21126,-137.34247 L -223.62909,-139.77303 z M -185.60102,-131.5699 L -186.56311,-124.3795 L -191.37359,-120.53113 L -191.37359,-118.10057 L -193.80414,-109.44171 L -189.95579,-107.01116 L -190.91787,-102.70705 L -188.03156,-102.70705 L -190.91787,-102.20069 L -191.87995,-98.352305 L -187.5252,-99.820766 L -188.99367,-96.428115 L -184.13257,-98.352305 L -187.01884,-100.78286 L -184.13257,-101.74496 L -187.01884,-102.20069 L -184.63893,-102.70705 L -187.01884,-104.63124 L -184.63893,-104.63124 L -187.5252,-107.51752 L -185.09466,-107.97326 L -185.60102,-110.85954 L -186.05674,-115.21428 L -181.75263,-127.72152 L -185.60102,-131.5699 z M -259.27724,-129.18998 L -259.27724,-126.3037 L -261.70778,-126.3037 L -260.74571,-123.41741 L -258.82151,-123.87314 L -256.39096,-124.3795 L -258.82151,-121.94895 L -253.50467,-120.02476 L -249.65628,-125.79733 L -252.54258,-128.22789 L -254.97313,-126.3037 L -255.42886,-129.18998 L -255.93523,-125.3416 L -258.82151,-128.22789 L -259.27724,-129.18998 z M -263.63198,-125.79733 L -263.63198,-118.10057 L -266.01191,-124.3795 L -266.974,-120.98685 L -269.40455,-123.41741 L -266.974,-124.83523 L -271.32874,-123.41741 L -269.40455,-113.74582 L -265.5562,-117.5942 L -265.5562,-115.21428 L -264.08772,-116.63211 L -262.66989,-114.70792 L -268.89818,-112.328 L -268.44246,-109.89745 L -263.63198,-111.36591 L -267.48036,-109.44171 L -265.04981,-107.97326 L -268.89818,-108.93535 L -266.51827,-105.08697 L -264.08772,-101.74496 L -260.23934,-114.70792 L -258.82151,-115.67001 L -256.39096,-116.63211 L -258.82151,-119.51839 L -258.82151,-119.56903 L -261.20143,-122.91104 L -262.16352,-120.98685 L -263.63198,-125.79733 z M -256.39096,-116.17638 L -258.82151,-115.21428 L -257.35305,-113.29009 L -256.39096,-116.17638 z M -254.46674,-113.74582 L -257.35305,-112.328 L -257.35305,-107.97326 L -254.97313,-108.93535 L -254.46674,-106.55543 L -252.54258,-109.44171 L -254.46674,-113.74582 z M -184.13257,-97.390209 L -187.5252,-96.428115 L -189.95579,-93.997559 L -187.98094,-93.035464 L -189.95579,-90.655544 L -187.01884,-91.617639 L -188.48731,-83.920882 L -186.05674,-81.996689 L -183.17046,-84.37661 L -178.86634,-80.072499 L -171.62532,-83.920882 L -181.24626,-88.22499 L -184.13257,-92.579736 L -184.13257,-97.390209 z M -147.06656,-86.807166 L -161.04229,-83.414515 L -161.04229,-80.52823 L -155.72544,-77.641945 L -157.64962,-75.211389 L -156.68754,-72.831469 L -161.04229,-75.717754 L -162.46011,-70.400914 L -166.81486,-67.514629 L -166.81486,-64.628345 L -170.66324,-62.704156 L -172.13168,-67.058902 L -170.66324,-69.438819 L -172.13168,-68.476724 L -173.09377,-62.248425 L -174.51161,-64.172615 L -180.79053,-55.463123 L -178.36,-54.045301 L -181.75263,-52.12111 L -180.28418,-47.310639 L -184.13257,-45.38646 L -188.48731,-48.272727 L -185.09466,-52.576838 L -186.56311,-54.50103 L -196.69043,-55.463123 L -192.84205,-53.538934 L -186.56311,-37.183325 L -193.29777,-39.613873 L -196.18406,-34.297027 L -197.65252,-30.904408 L -197.95633,-29.689122 L -196.18406,-27.056015 L -193.80414,-23.713993 L -195.22197,-23.713993 L -200.5388,-23.713993 L -201.5009,-21.789815 L -200.5388,-24.169718 L -205.80501,-25.131825 L -206.31137,-21.789815 L -200.5388,-19.865625 L -201.5009,-15.510862 L -211.12185,-18.90353 L -214.51451,-25.131825 L -213.5524,-28.980193 L -219.78071,-30.448659 L -217.85651,-31.866491 L -224.13547,-36.22123 L -201.5009,-33.790669 L -199.57672,-37.183325 L -197.14616,-42.955883 L -203.27318,-47.614464 L -203.42509,-47.766376 L -204.3872,-48.728463 L -218.36288,-53.538934 L -222.66698,-53.083204 L -223.62909,-49.690551 L -223.17337,-53.538934 L -226.51536,-53.083204 L -227.47747,-55.463123 L -224.5912,-55.463123 L -227.47747,-56.931584 L -229.40166,-53.538934 L -232.33858,-55.463123 L -233.75641,-53.538934 L -236.18696,-55.96949 L -237.14904,-56.931584 L -232.79432,-56.931584 L -230.87013,-59.817871 L -236.6427,-62.248425 L -239.07326,-58.855775 L -237.60479,-62.704156 L -240.03534,-63.66625 L -240.99744,-58.855775 L -242.41526,-57.893679 L -242.41526,-62.248425 L -245.30157,-55.463123 L -244.33945,-61.28633 L -247.22572,-62.248425 L -249.65628,-54.50103 L -254.41612,-57.488587 L -253.96041,-54.50103 L -252.9983,-52.576838 L -255.42886,-54.50103 L -258.82151,-49.690551 L -259.27724,-49.234828 L -258.82151,-50.196918 L -257.85942,-54.50103 L -258.82151,-52.576838 L -259.7836,-50.196918 L -259.7836,-53.083204 L -261.70778,-51.614745 L -260.23934,-48.728463 L -263.63198,-50.652655 L -265.04981,-44.880082 L -268.44246,-43.917991 L -264.59409,-42.955883 L -268.89818,-42.955883 L -268.89818,-38.651778 L -269.86029,-41.9938 L -272.29084,-40.57598 L -270.36664,-39.613873 L -273.25295,-39.613873 L -270.82238,-37.183325 L -275.17712,-35.259134 L -272.29084,-33.841315 L -278.06342,-32.828574 L -276.64558,-31.866491 L -279.9876,-27.562374 L -276.64558,-28.018098 L -281.45606,-26.600278 L -279.9876,-24.676088 L -281.45606,-25.638183 L -283.83597,-20.82772 L -280.94969,-20.82772 L -286.72228,-18.397172 L -283.83597,-18.90353 L -286.72228,-16.979327 L -285.30444,-15.055149 L -287.68436,-14.093054 L -288.19073,-16.472969 L -293.96329,-10.194028 L -291.077,-9.2319454 L -287.22864,-12.624601 L -289.15281,-7.8141133 L -293.00121,-7.3077429 L -293.45692,-9.7383035 L -297.35596,-8.7762206 L -297.81167,-4.4214698 L -300.24223,-6.3456723 L -298.31803,-3.4593747 L -303.1285,-6.3456723 L -299.73587,-3.9657327 L -306.01481,-4.4214698 L -303.58423,-0.11736454 L -305.05271,-2.0415425 L -306.01481,-0.57308929 L -307.93898,-1.5351844 L -306.97691,-0.11736454 L -310.82526,-2.0415425 L -310.82526,-0.11736454 L -305.50843,1.351101 L -310.82526,0.38900584 L -312.2431,2.3131838 L -309.35681,3.7310037 L -312.74945,3.2752912 L -310.31891,4.2373863 L -312.2431,6.1615768 L -307.43263,6.1615768 L -306.47054,4.6931233 L -304.54634,7.1236719 L -303.1285,4.6931233 L -303.1285,6.6173138 L -306.01481,9.0478622 L -306.97691,6.6173138 L -313.20519,6.1615768 L -311.281,8.0857548 L -313.71157,8.0857548 L -312.74945,10.00997 L -310.82526,9.0478622 L -313.71157,11.478423 L -313.20519,13.402601 L -311.281,11.478423 L -313.20519,15.326791 L -306.47054,11.934148 L -314.67367,17.706718 L -313.71157,19.630896 L -309.86318,18.213064 L -313.20519,21.099374 L -310.31891,22.061469 L -311.78736,23.479314 L -314.16729,21.555099 L -314.67367,24.947754 L -310.31891,30.213955 L -305.50843,30.213955 L -299.28013,23.479314 L -295.88748,24.441384 L -293.96329,18.213064 L -293.60883,26.061762 L -293.71011,26.061762 L -293.45692,30.264588 L -291.63399,29.859485 C -291.63399,29.859485 -291.93881,31.365148 -292.14038,32.340691 L -292.49484,33.606611 L -291.48209,32.087499 C -291.06435,31.466869 -290.67189,30.821567 -290.67191,30.821567 L -291.98848,34.973785 L -292.03911,35.075052 L -288.24135,44.037732 L -290.11492,45.759401 L -290.57065,46.113835 L -290.57065,46.164468 L -289.65918,53.354859 L -283.78535,53.911875 L -281.00033,48.139292 L -276.03793,49.000108 L -272.24022,38.923444 L -272.44274,36.492896 L -272.49338,36.037147 L -272.74658,31.277329 L -272.03765,31.17605 L -270.82238,31.17605 L -272.34148,30.416488 L -273.50612,29.75823 L -272.24022,29.505039 L -268.44246,28.796135 L -268.29055,27.935307 L -267.83482,26.213662 L -266.974,28.796135 L -265.7081,27.530203 L -263.58136,25.606037 L -263.73326,25.504746 L -263.63198,25.403467 L -264.74598,24.745184 L -264.94855,24.593284 L -264.99918,24.593284 L -265.91063,23.935026 L -265.7081,23.783114 L -265.50554,23.681835 L -265.15109,23.428656 L -262.16352,21.555099 L -264.44218,17.909252 L -264.6447,17.554806 L -265.96126,15.326791 L -269.35391,14.314075 L -266.974,-2.8517376 L -265.80935,-1.8389968 L -265.04981,-1.0794597 L -258.92279,-6.2950267 L -258.82151,-6.3963057 L -256.39096,-8.7762206 L -256.34032,-8.9281207 L -253.50467,-13.586709 L -253.55532,-13.687963 L -254.87185,-20.16945 L -254.06169,-19.663079 L -253.96041,-19.612433 L -252.9983,-18.90353 L -253.20086,-20.675808 L -253.45404,-23.156989 L -252.8464,-22.802531 L -251.12476,-21.739169 L -251.12476,-21.789815 L -251.07414,-21.789815 L -251.02347,-22.144273 L -250.97285,-22.296173 L -250.97285,-22.397464 L -250.46649,-24.676088 L -244.84582,-24.169718 L -241.45317,-18.397172 L -254.92249,-1.130093 L -254.97313,-1.0794597 L -252.54258,8.5921251 L -253.50467,15.326791 L -249.14992,18.213064 L -248.79545,17.959897 L -248.74483,17.909252 L -248.6942,17.858618 L -247.27638,16.947157 L -247.37763,17.858618 L -247.7321,21.099374 L -247.63082,21.048704 L -227.02173,12.440518 L -226.51536,15.326791 L -219.78071,17.250994 L -227.98383,19.630896 L -228.43957,22.365294 L -228.43957,22.415915 L -232.79432,22.061469 L -233.65513,21.960202 L -233.70575,21.960202 L -237.14904,21.555099 L -244.03563,24.79583 L -245.45347,25.4541 L -243.93435,32.239412 L -240.49107,32.340691 L -240.99744,40.088085 L -242.2127,41.151459 L -243.68118,42.113542 L -245.90919,39.581727 L -246.06109,39.379181 L -248.18783,36.492896 L -252.03621,38.417086 L -252.39065,39.429815 L -252.54258,39.733615 L -252.64387,40.037452 L -255.12504,46.113835 L -254.21359,52.899146 L -253.85911,55.127161 L -253.50467,58.165347 L -256.39096,58.165347 L -254.21359,52.899146 L -256.39096,57.203239 L -258.82151,58.165347 L -258.82151,60.595895 L -256.89732,60.089537 L -258.66959,61.507332 L -258.72023,61.507332 L -259.02405,61.507332 L -259.0747,61.760536 L -261.70778,63.482168 L -259.27724,60.595895 L -264.08772,62.520098 L -267.9361,58.671705 L -282.41816,63.93793 L -282.8739,67.330561 L -289.60855,60.595895 L -299.28013,62.97581 L -297.81167,59.6338 L -302.16642,59.6338 L -304.54634,55.279074 L -303.1285,49.000108 L -296.39385,44.189632 L -299.73587,41.80973 L -296.39385,34.568693 L -305.50843,37.961374 L -309.86318,55.279074 L -307.93898,54.823312 L -306.97691,57.709622 L -308.90109,58.671705 L -304.0906,65.406383 L -308.90109,62.013715 L -310.31891,65.862095 L -312.2431,62.97581 L -316.09149,62.97581 L -315.12938,65.862095 L -321.91469,63.482168 L -324.80097,65.406383 L -323.33253,69.254751 L -326.21881,70.672571 L -327.68725,65.406383 L -332.49771,72.141049 L -330.06717,74.571597 L -335.83975,74.571597 L -332.49771,76.9515 L -345.00495,77.45787 L -345.96705,82.724083 L -347.89126,83.230441 L -355.58801,86.572451 L -363.33542,80.79988 L -363.33542,89.458749 L -369.56371,88.496654 L -370.52578,85.154631 L -379.18464,85.154631 L -376.80475,88.040929 L -379.18464,87.078846 L -379.18464,90.927202 L -370.52578,96.244036 L -369.56371,104.39655 L -366.67741,106.82709 L -368.6016,111.13119 L -368.14589,112.14393 L -374.88055,126.57536 L -401.86984,115.99232 L -404.24977,112.59966 L -413.87071,114.06813 L -411.94652,120.80279 L -418.22546,135.2342 L -424.96011,142.93096 L -422.07384,142.93096 L -424.50439,145.81726 L -421.56748,147.28571 L -422.52956,147.28571 L -426.42858,155.94457 L -414.8328,158.83084 L -410.52869,170.37599 L -402.32555,167.99609 L -389.81834,172.80656 L -384.5015,168.45182 L -380.19737,168.95817 L -377.76682,164.1477 L -374.88055,163.1856 L -372.95634,162.67926 L -373.91845,161.26143 L -375.33628,159.33722 L -373.91845,154.98248 L -372.45,154.0204 L -365.25959,147.74145 L -352.24598,144.85516 L -352.24598,137.66476 L -349.35971,134.72785 L -345.00495,133.76575 L -334.42192,140.04469 L -319.0284,132.34793 L -311.78736,137.1584 L -308.39472,149.20991 L -283.83597,168.95817 L -280.94969,177.61703 L -284.79807,183.38958 L -282.41816,184.35171 L -279.02549,178.07276 L -275.17712,176.65494 L -279.02549,171.3381 L -276.64558,166.52761 L -271.32874,167.48971 L -268.44246,171.3381 L -267.48036,168.95817 L -281.9118,158.32448 L -280.49397,155.43821 L -288.19073,153.51403 L -293.45692,141.96888 L -299.73587,136.70268 L -300.24223,127.53746 L -293.00121,125.61324 L -292.44421,127.8919 L -291.53276,133.10749 L -287.73501,129.51229 L -280.94969,143.38671 L -276.24049,144.29815 L -272.03765,147.99463 L -271.63256,148.90606 L -265.35361,151.79237 L -261.25207,156.40029 L -263.22689,166.98335 L -259.73297,171.08491 L -258.82151,172.30018 L -258.82151,171.94574 L -254.71995,177.46512 L -252.23874,176.80685 L -254.26422,178.47783 L -252.23874,181.76922 L -239.73154,182.88323 L -241.55443,184.19977 L -250.6184,182.98452 L -252.03621,185.26315 L -248.74483,192.95989 L -245.95982,191.18762 L -243.93435,195.69428 L -243.02291,192.65608 L -239.73154,195.08664 L -242.26334,187.28862 L -237.75669,188.0988 L -240.84552,184.75678 L -237.65543,183.38958 L -234.76914,185.97206 L -234.56659,182.57941 L -243.83309,178.07276 L -241.14936,176.60429 L -241.35188,174.17374 L -239.22516,174.98392 L -243.83309,166.07186 L -241.757,165.10979 L -235.93379,169.56582 L -237.14904,166.67951 L -233.45259,167.69225 L -237.65543,163.5907 L -229.45229,161.31206 L -224.03418,162.37541 L -224.03418,162.3248 L -219.78071,163.1856 L -223.17337,167.99609 L -215.93234,160.29932 L -207.77984,159.33722 L -213.45112,152.60257 L -215.93234,149.61498 L -217.75524,150.07073 L -212.0333,141.41189 L -211.83076,135.89249 L -211.62824,130.67693 L -210.76741,132.09475 L -210.66613,132.34793 L -207.27349,130.42372 L -208.23557,123.1827 L -207.47602,124.70181 L -207.47602,124.75243 L -207.27349,125.10688 L -206.6152,123.841 L -203.88082,120.80279 L -202.91873,116.95439 L -197.14616,113.56176 L -194.25987,115.99232 L -199.57672,116.44803 L -196.69043,116.95439 L -197.65252,118.37222 L -188.03156,117.41013 L -187.5252,119.8407 L -192.84205,124.1448 L -189.4494,123.1827 L -187.5252,129.46164 L -184.13257,129.91737 L -171.62532,119.8407 L -177.39789,121.76488 L -180.28418,121.76488 L -183.67684,118.37222 L -180.79053,113.10602 L -181.24626,116.44803 L -177.39789,111.13119 L -162.00438,102.47233 L -163.92856,107.78918 L -168.28332,108.7513 L -164.89064,111.18185 L -167.3212,118.37222 L -171.62532,121.25852 L -151.42132,128.95528 L -142.25612,131.84156 L -140.07874,135.58868 L -139.82554,135.58868 L -136.17973,134.98102 L -133.14152,135.58868 L -130.30588,134.37338 L -128.48295,133.9683 L -121.14066,133.76575 L -117.69737,135.58868 L -115.6719,135.58868 L -113.0388,137.41158 L -107.51943,138.82939 L -106.10161,138.42433 L -104.27867,137.61413 L -98.404837,137.41158 L -94.657735,138.93069 L -95.518552,133.76575 L -91.670159,129.91737 L -96.987017,129.91737 L -110.45634,120.29643 L -113.34263,112.09331 L -113.84899,115.03023 L -120.0773,108.7513 L -119.62155,99.58607 L -113.34263,96.244036 L -112.8869,89.965107 L -106.15222,82.268358 L -104.27867,81.610063 L -104.27867,79.939064 L -105.89904,77.913607 L -107.72195,76.293242 L -108.53215,72.799307 L -109.74744,68.140744 L -117.08974,61.861815 L -118.7101,56.747515 L -118.7101,54.519512 L -115.2668,51.278756 L -112.63372,49.455857 L -109.94997,47.227855 L -106.30413,44.392203 L -101.64557,42.7718 L -97.392108,41.759084 L -94.961548,40.290631 L -91.265067,40.088085 L -89.84726,38.46772 L -88.429428,38.062604 L -87.821791,39.480436 L -85.593776,39.885527 L -83.365773,38.265174 L -82.55559,39.277902 L -82.302423,37.910704 L -84.479768,33.606611 L -82.302423,37.86007 L -81.947953,35.834626 L -79.922484,36.239705 L -77.491936,33.809144 L -76.428561,32.391312 L -78.099573,28.745489 L -79.112301,28.13784 L -80.327575,29.555672 L -81.947953,28.745489 L -83.770864,29.75823 L -84.581035,28.948035 L -86.403971,28.745489 L -86.201425,26.922578 L -91.872717,25.302188 L -94.353886,25.099655 L -95.164094,24.289472 L -95.164094,23.428656 L -96.784484,21.808278 L -97.392108,14.516608 L -98.404837,13.098788 L -100.63284,12.896243 L -102.05066,14.111529 L -103.67102,17.554806 L -105.08887,19.985367 L -106.70923,19.985367 L -107.51943,20.592991 L -114.45663,17.352248 L -116.27954,15.529337 L -115.6719,13.503867 L -110.96269,9.0478622 L -109.74744,5.1488358 L -110.96269,2.5157541 L -112.83626,1.705559 L -116.27954,1.705559 L -118.30501,0.085193433 L -118.7101,-4.7759278 L -117.69737,-7.6115676 L -121.74829,-18.397172 L -124.38141,-25.486283 L -127.41958,-31.005675 L -129.0906,-32.62604 L -129.0906,-34.651497 L -128.68551,-35.461692 L -140.43319,-51.716018 L -138.00265,-61.488878 L -136.17973,-72.223832 L -137.19245,-80.173773 L -138.20519,-80.781413 L -144.53476,-85.743797 L -148.48442,-86.300801 L -147.06656,-86.807166 z M -167.77696,-83.920882 L -166.30847,-81.034595 L -165.85275,-81.034595 L -162.00438,-81.034595 L -162.46011,-82.958787 L -162.96648,-83.414515 L -163.92856,-83.414515 L -167.77696,-83.920882 z M -377.26046,-66.552533 L -378.72891,-61.742058 L -379.18464,-65.59044 L -381.15949,-62.248425 L -382.57731,-64.628345 L -383.08366,-62.248425 L -385.00784,-63.66625 L -378.72891,-58.400047 L -382.12158,-58.400047 L -380.65313,-55.96949 L -386.93206,-59.362141 L -382.57731,-51.159021 L -388.34988,-50.196918 L -384.04576,-48.272727 L -382.12158,-44.424361 L -380.19737,-40.57598 L -373.91845,-40.06961 L -366.67741,-39.613873 L -360.90486,-41.9938 L -361.86693,-43.917991 L -359.48701,-42.955883 L -359.94275,-52.12111 L -357.05645,-53.083204 L -360.44912,-52.576838 L -360.90486,-56.475854 L -363.33542,-54.045301 L -367.18378,-56.931584 L -369.10796,-53.538934 L -368.6016,-57.893679 L -371.99427,-55.96949 L -372.45,-58.400047 L -372.95634,-59.817871 L -378.22256,-55.463123 L -375.33628,-60.779966 L -377.26046,-66.552533 z M -184.63893,-66.552533 L -185.60102,-62.704156 L -182.71475,-61.28633 L -180.79053,-65.13471 L -184.63893,-66.552533 z M -168.28332,-63.66625 L -170.66324,-57.437951 L -162.96648,-43.462254 L -157.64962,-46.804273 L -156.2318,-55.007395 L -157.19389,-46.348549 L -162.96648,-43.462254 L -171.1696,-57.437951 L -168.28332,-63.66625 z M -148.99077,-63.66625 L -148.48442,-62.704156 L -148.53505,-62.704156 L -148.99077,-63.66625 z M -265.5562,-51.614745 L -267.48036,-47.766376 L -264.08772,-50.652655 L -265.5562,-51.614745 z M -235.22487,-51.614745 L -236.18696,-47.310639 L -239.52897,-47.310639 L -235.22487,-51.614745 z M -271.78446,-47.766376 L -274.21504,-45.38646 L -272.79722,-44.424361 L -271.78446,-47.766376 z M -270.82238,-47.310639 L -272.79722,-42.500171 L -270.36664,-44.424361 L -270.82238,-47.310639 z M -222.21126,-45.842183 L -220.74279,-40.06961 L -222.66698,-38.651778 L -222.21126,-45.842183 z M -241.45317,-41.538063 L -236.18696,-41.538063 L -237.14904,-39.613873 L -241.45317,-41.538063 z M -225.09756,-29.486576 L -224.13547,-27.056015 L -226.51536,-28.018098 L -225.09756,-29.486576 z M -188.94303,-19.359254 L -185.09466,-15.055149 L -172.58742,-11.156136 L -172.58742,-10.700386 L -185.09466,-15.055149 L -188.94303,-18.90353 L -188.94303,-19.359254 z M -236.6427,-15.510862 L -231.83222,-12.624601 L -236.18696,-13.080326 L -236.6427,-15.510862 z M -211.12185,-14.093054 L -206.7671,-11.662494 L -209.19766,-11.662494 L -208.23557,-7.3077429 L -211.12185,-14.093054 z M -130.20461,-14.093054 L -124.93841,-7.8141133 L -125.90049,-4.9278524 L -125.03966,-4.3708364 L -124.93841,-4.4214698 L -124.33076,-3.9657327 L -123.46993,-3.4593747 L -121.03938,-4.4214698 L -122.50784,-3.0036376 L -119.62155,-0.57308929 L -124.33076,-3.9657327 L -125.03966,-4.3708364 L -127.82469,-3.4593747 L -125.90049,-6.3456723 L -128.78679,-6.3456723 L -127.82469,-9.7383035 L -130.20461,-14.093054 z M -213.04603,-10.700386 L -211.12185,-8.7762206 L -213.5524,-8.7762206 L -213.04603,-10.700386 z M -235.68058,-8.2698503 L -227.47747,-0.11736454 L -231.3765,-2.4972672 L -230.87013,1.351101 L -226.05965,1.351101 L -226.51536,-2.0415425 L -224.13547,-1.0794597 L -224.13547,3.4778369 L -224.43929,4.0348529 L -228.94594,8.0857548 L -226.86982,8.5414795 L -226.97111,8.6933919 L -230.4144,9.5542203 L -232.79432,6.1615768 L -229.90802,7.1236719 L -227.02173,4.2373863 L -233.30069,-0.11736454 L -232.33858,-3.4593747 L -235.68058,-8.2698503 z M -208.69132,-6.8520182 L -203.88082,-4.4214698 L -199.57672,4.2373863 L -200.99454,7.1236719 L -204.84293,6.6173138 L -202.46301,5.1994814 L -208.23557,0.84473058 L -210.66613,-3.9657327 L -207.27349,-0.57308929 L -209.19766,-4.9278524 L -205.80501,-1.0794597 L -204.3872,-3.0036376 L -208.69132,-6.8520182 z M -238.56688,-4.4214698 L -237.60479,0.84473058 L -237.14904,-3.0036376 L -235.22487,-1.0794597 L -236.6427,-3.4593747 L -234.26277,-2.4972672 L -238.56688,4.2373863 L -238.56688,9.5542203 L -235.68058,8.0857548 L -236.6427,11.934148 L -240.03534,8.0857548 L -238.11116,1.351101 L -238.56688,-2.4972672 L -240.49107,-3.4593747 L -238.56688,-4.4214698 z M -226.05965,1.806838 L -227.98383,2.7689331 L -226.51536,4.2373863 L -225.55328,1.806838 L -226.05965,1.806838 z M -245.8079,2.7689331 L -241.95953,2.7689331 L -241.95953,5.1994814 L -245.30157,6.1615768 L -245.30157,9.5542203 L -241.95953,6.1615768 L -244.33945,10.00997 L -242.41526,11.934148 L -245.30157,9.5542203 L -245.30157,10.00997 L -245.8079,2.7689331 z M -219.78071,3.7310037 L -211.12185,10.516315 L -215.93234,17.250994 L -223.17337,8.0857548 L -219.78071,3.7310037 z M -122.96357,4.2373863 L -122.00149,5.1994814 L -125.90049,10.516315 L -122.96357,4.2373863 z M -192.84205,9.0478622 L -191.87995,10.516315 L -194.76624,10.97204 L -192.84205,9.0478622 z M -358.98065,11.934148 L -363.33542,14.820433 L -363.79114,16.288911 L -361.41121,15.782516 L -358.98065,11.934148 z M -354.17019,12.896243 L -356.55011,18.668826 L -359.48701,17.250994 L -359.94275,23.023552 L -363.79114,24.441384 L -359.48701,26.365574 L -366.22168,35.075052 L -362.82905,32.188778 L -359.94275,30.264588 L -359.48701,33.150874 L -360.90486,32.188778 L -364.75324,39.379181 L -364.29749,41.303359 L -363.79114,39.885527 L -356.09438,41.303359 L -359.94275,44.189632 L -358.98065,48.038037 L -357.05645,47.07593 L -359.94275,51.937039 L -358.47428,53.861241 L -365.25959,52.392764 L -368.6016,54.823312 L -365.25959,54.823312 L -365.71531,57.709622 L -373.41208,60.595895 L -366.22168,66.824191 L -360.90486,65.406383 L -365.25959,68.748381 L -370.52578,66.824191 L -379.69102,72.596786 L -370.07007,74.571597 L -368.14589,71.634678 L -352.70172,75.989405 L -345.51133,75.027322 L -345.00495,73.609502 L -349.81543,71.178954 L -346.92915,71.178954 L -341.66295,65.862095 L -342.62504,62.013715 L -347.89126,60.595895 L -348.39761,60.595895 L -346.92915,56.241144 L -346.92915,55.785419 L -347.43552,54.823312 L -349.81543,53.861241 L -346.47344,54.316954 L -345.96705,51.937039 L -349.81543,47.07593 L -350.32181,36.037147 L -356.55011,32.188778 L -351.28389,33.150874 L -354.17019,31.226683 L -350.32181,30.720338 L -345.00495,24.441384 L -355.1323,21.555099 L -346.92915,15.326791 L -354.17019,12.896243 z M -188.48731,16.288911 L -190.91787,18.213064 L -188.99367,18.668826 L -184.63893,21.099374 L -186.05674,25.403467 L -192.84205,21.555099 L -188.48731,22.061469 L -191.87995,17.706718 L -188.48731,16.288911 z M -362.82905,17.706718 L -362.37332,23.023552 L -361.41121,21.099374 L -362.82905,17.706718 z M -165.85275,21.099374 L -165.34639,30.264588 L -168.28332,23.479314 L -165.85275,21.099374 z M -131.67306,22.061469 L -130.71097,23.479314 L -129.24253,22.061469 L -137.44563,32.644503 L -137.44563,34.568693 L -137.90137,37.454979 L -135.52144,39.379181 L -132.63515,36.492896 L -133.59727,41.80973 L -129.74886,41.303359 L -133.59727,44.696003 L -132.63515,42.7718 L -138.40772,38.923444 L -137.44563,30.720338 L -139.36982,28.796135 L -146.10449,26.365574 L -151.42132,26.87192 L -155.06716,29.454405 L -157.64962,31.682408 L -158.0041,31.581141 L -158.15601,31.682408 L -163.92856,29.302505 L -158.0041,31.581141 L -155.06716,29.454405 L -151.42132,26.365574 L -145.64876,25.90985 L -139.36982,28.796135 L -137.90137,29.75823 L -138.40772,27.327669 L -135.97718,28.28974 L -131.67306,24.441384 L -131.67306,22.061469 z M -285.30444,23.479314 L -281.45606,23.985659 L -282.8739,28.28974 L -289.15281,30.720338 L -288.19073,26.365574 L -285.30444,26.87192 L -285.30444,23.479314 z M -363.33542,25.90985 L -365.71531,27.834028 L -362.82905,27.834028 L -363.33542,25.90985 z M -228.94594,26.365574 L -228.94594,30.720338 L -231.83222,27.327669 L -228.94594,26.365574 z M -249.14992,27.327669 L -250.6184,27.834028 L -249.14992,29.75823 L -246.77001,28.28974 L -249.14992,27.327669 z M -214.51451,27.834028 L -212.08395,29.75823 L -215.93234,30.264588 L -214.51451,27.834028 z M -92.176529,30.720338 L -89.290232,32.644503 L -91.214434,34.568693 L -92.176529,30.720338 z M -251.58048,31.226683 L -250.6184,35.530764 L -245.8079,31.226683 L -251.58048,31.226683 z M -374.88055,32.188778 L -379.69102,34.568693 L -376.80475,36.037147 L -379.69102,38.417086 L -385.96995,35.530764 L -385.00784,39.379181 L -388.85624,40.847635 L -384.04576,44.696003 L -390.27407,47.582288 L -385.00784,49.000108 L -393.16034,48.544383 L -390.78043,50.468598 L -394.12246,51.430681 L -390.78043,52.899146 L -394.12246,53.354859 L -390.78043,53.861241 L -393.16034,55.279074 L -384.5015,55.785419 L -376.29837,56.241144 L -371.99427,43.22755 L -367.18378,41.80973 L -367.63952,35.075052 L -372.95634,35.075052 L -370.52578,34.112956 L -371.99427,32.188778 L -374.37419,34.568693 L -374.88055,32.188778 z M -262.66989,35.530764 L -266.51827,38.417086 L -266.01191,42.265454 L -262.66989,35.530764 z M -303.58423,38.417086 L -300.24223,39.379181 L -303.1285,39.885527 L -302.62214,42.7718 L -303.58423,40.341252 L -306.01481,41.80973 L -303.58423,38.417086 z M -291.077,47.582288 L -292.49484,50.974944 L -293.45692,48.038037 L -297.35596,49.506478 L -293.96329,59.127442 L -293.96329,55.785419 L -290.11492,51.430681 L -291.077,47.582288 z M -301.20432,50.468598 L -302.16642,53.354859 L -298.77378,54.316954 L -298.77378,50.468598 L -301.20432,50.468598 z M -137.44563,57.203239 L -140.33191,62.621352 L -139.42047,67.026736 L -139.31919,67.381207 L -135.52144,70.216846 L -138.40772,72.647407 L -138.40772,73.103132 L -139.36982,85.154631 L -138.86347,73.103132 L -138.40772,69.710464 L -139.31919,67.381207 L -139.36982,67.330561 L -139.42047,67.026736 L -140.78766,63.482168 L -140.33191,62.621352 L -140.33191,62.520098 L -137.44563,57.203239 z M -286.26653,59.6338 L -288.64644,61.05162 L -286.26653,62.013715 L -286.26653,59.6338 z M -167.77696,66.824191 L -167.27056,67.786298 L -166.81486,69.254751 L -167.3212,67.786298 L -167.77696,66.824191 z M -127.31832,68.292656 L -128.28041,68.799014 L -129.74886,69.254751 L -128.28041,68.748381 L -127.31832,68.292656 z M -146.10449,79.83781 L -143.21822,81.761975 L -143.21822,85.610368 L -144.1803,93.813475 L -148.53505,96.244036 L -148.99077,92.851392 L -146.10449,92.851392 L -147.06656,88.040929 L -144.63602,87.534558 L -143.67395,83.230441 L -146.10449,79.83781 z M -203.42509,90.927202 L -204.84293,91.43356 L -207.72919,91.43356 L -209.19766,91.889309 L -207.72919,91.382939 L -204.84293,91.382939 L -203.42509,90.927202 z M -356.55011,91.889309 L -357.51221,93.813475 L -357.51221,94.775582 L -358.01857,95.73769 L -357.56283,94.775582 L -357.56283,93.813475 L -356.55011,91.889309 z M -210.66613,91.889309 L -211.62824,92.395667 L -214.51451,92.395667 L -215.93234,92.851392 L -214.51451,92.345034 L -211.62824,92.345034 L -210.66613,91.889309 z M -203.42509,92.345034 L -185.60102,99.130333 L -183.17046,97.661855 L -181.24626,106.32072 L -187.5252,107.78918 L -188.48731,112.09331 L -193.80414,114.97957 L -189.4494,112.09331 L -188.48731,106.82709 L -183.17046,105.865 L -183.17046,100.54815 L -203.42509,92.345034 z M -218.81863,92.851392 L -219.78071,93.357763 L -222.66698,93.357763 L -224.13547,93.813475 L -222.66698,93.307117 L -219.78071,93.307117 L -218.81863,92.851392 z M -358.01857,96.699785 L -358.47428,97.661855 L -358.47428,99.130333 L -359.48701,101.05451 L -358.52492,99.130333 L -358.52492,97.661855 L -358.01857,96.699785 z M -112.38053,133.76575 L -109.03854,134.72785 L -113.34263,135.2342 L -112.38053,133.76575 z M -317.10421,143.43734 L -322.37042,147.28571 L -320.9526,154.0204 L -317.10421,150.172 L -317.10421,143.43734 z M -319.48413,155.94457 L -325.76305,157.41302 L -326.21881,171.84445 L -319.0284,170.37599 L -317.10421,161.71714 L -319.48413,155.94457 z M -354.6259,158.37513 L -359.94275,159.79295 L -357.05645,162.67926 L -353.66383,160.75506 L -354.6259,158.37513 z M -239.52897,176.65494 L -241.95953,177.61703 L -232.79432,183.38958 L -234.26277,179.08547 L -239.52897,176.65494 z M -255.42886,181.00967 L -256.89732,182.93388 L -254.01103,183.38958 L -255.42886,181.00967 z M -284.79807,181.46541 L -303.58423,181.97178 L -302.62214,185.31379 L -289.15281,192.55482 L -284.79807,181.46541 z M -236.6427,200.75793 L -236.6427,203.64423 L -229.40166,205.06204 L -220.74279,204.09996 L -219.78071,201.72005 L -223.17337,203.64423 L -236.6427,200.75793 z M -292.39357,200.80857 L -291.83657,202.73277 L -289.86173,202.9353 L -290.06427,201.01113 L -292.39357,200.80857 z"
       id="path4103" />
  </g>
</svg>
