<?xml version="1.0" encoding="UTF-8"?>
<!DOCTYPE svg PUBLIC
	"-//W3C//DTD XHTML 1.1 plus MathML 2.0 plus SVG 1.1//EN"
	"http://www.w3.org/2002/04/xhtml-math-svg/xhtml-math-svg-flat.dtd"[
<!ENTITY % SVG.prefixed "IGNORE" >
<!ENTITY % XHTML.prefixed "INCLUDE" >
<!ENTITY % XHTML.prefix "xhtml" >
<!ENTITY % MATHML.prefixed "INCLUDE" >
<!ENTITY % MATHML.prefix "math" >
]>
<svg xmlns="http://www.w3.org/2000/svg" xml:lang="es" 
	xmlns:xlink="http://www.w3.org/1999/xlink" 
	xmlns:xhtml="http://www.w3.org/1999/xhtml" 
	version="1.1" baseProfile="full" 
	width="100%" height="100%" viewBox="0 0 1280 1024">

	<!-- Metadata -->
	<title>Francia</title>
	<desc xml:lang="es">Mapa de Francia en SVG para uso como elemento en otros mapamundis (Winkel-Tripel).</desc>
	<desc xml:lang="en">France map element for SVG world maps (Winkel-Tripel).</desc>
	<!-- /Metadata -->

	<!-- Defs -->
	<defs>

		<!-- France all -->
		<g id="France">

			<!-- path -->
			<path id="FrancePath" d="m 1276.9848,283.56842 c 0.892,-0.422 1.962,-0.686 2.95,-0.504 0.344,-1.514 -1.669,-0.473 -2.09,-1.512 0.926,-0.307 2.005,-0.194 2.96,-0.145 -0.75,-0.129 -1.766,0.138 -1.23,-0.792 -0.578,-0.031 -2.544,1.079 -2.782,0.108 -0.324,-1.325 1.693,-2.125 2.654,-2.315 1.292,-0.256 2.51,-0.36 3.82,-0.324 1.855,0.051 3.042,-1.75 5.097,-1.501 -0.233,0.665 2.236,2.987 2.926,2.708 0.464,-0.226 0.911,-0.484 1.34,-0.772 0.937,-0.521 0.875,0.152 1.658,0.302 0.774,0.148 1.366,-0.462 1.417,0.787 0.506,-0.347 -0.238,-0.762 0.178,-1.327 0.425,-0.577 0.641,0.299 1.014,0.397 0.886,0.232 2.02,-0.004 2.908,-0.15 -1.886,-0.553 -1.194,-3.219 -1.04,-4.608 0.075,-0.676 -0.948,-1.354 -1.295,-1.826 -0.598,-0.813 -0.046,-2.049 -0.905,-2.711 0.654,0.114 1.25,0.434 1.899,0.569 0.71,0.148 1.587,-0.549 2.21,-0.235 0.971,0.488 -0.24,1.954 1.105,2.724 0.388,0.222 1.085,-0.173 1.485,-0.177 1.17,-0.011 2.295,0.385 3.432,0.601 1.111,0.211 2.078,0.179 3.074,-0.39 0.903,-0.515 2.11,-0.496 2.924,-1.075 -0.646,0.256 -1.744,0.386 -2.373,0.026 -1.275,-0.731 1.664,-2.529 2.152,-2.748 1.55,-0.694 3.304,-0.611 4.877,-1.241 0.913,-0.365 2.129,-2.453 3.263,-1.869 -0.993,-0.639 -0.386,-5.064 0.438,-5.893 0.811,-0.814 4.942,-2.286 6.004,-1.391 0.541,0.456 0.29,1.71 0.93,2.371 1.17,1.208 1.387,-0.409 2.542,-0.061 1.077,0.325 0.695,1.686 1.529,2.09 1.088,0.527 2.232,0.046 2.096,1.73 0.648,-0.419 1.772,-0.322 2.461,-0.085 1.294,0.444 0.748,2.039 0.488,2.965 0.865,0.145 1.846,0.414 2.707,0.07 0.852,-0.341 1.047,-1.314 1.903,-1.654 0.074,0.536 -0.15,2.933 0.576,2.959 1.071,0.038 3.227,1.451 3.56,2.478 -0.096,-0.296 4.071,0.378 4.285,0.396 1.013,0.087 1.769,-0.122 2.572,0.715 0.632,0.66 1.077,1.697 2.038,1.948 0.206,-0.098 0.371,-0.244 0.495,-0.438 0.31,-0.321 0.466,0.105 0.795,0.15 0.184,0.07 0.233,0.196 0.147,0.377 -0.057,0.392 0.861,0.178 1.013,0.191 1.023,0.093 1.611,-0.538 2.558,0.183 1.008,0.768 3.091,0.91 4.352,1.121 -1.547,1.365 -2.975,2.863 -3.475,4.891 -0.243,0.986 -0.83,1.892 -0.985,2.886 -0.102,0.65 0.119,0.914 -0.142,1.749 -0.314,1.009 0.454,1.85 -0.225,2.476 -0.572,0.528 -1.014,1.037 -1.874,0.96 -0.721,-0.064 -0.782,-1.131 -1.65,-0.648 -0.627,0.349 -0.687,1.463 0.36,1.296 -0.787,0.826 -1.482,1.807 -2.38,2.52 -0.55,0.358 -1.088,0.734 -1.614,1.128 -0.433,0.39 -0.391,1.154 -0.756,1.608 -0.623,0.774 -1.83,1.138 -2.02,2.232 0.14,0.373 0.236,0.757 0.29,1.151 -0.149,0.709 -0.808,0.962 -1.08,1.584 1.188,-0.149 1.624,-0.555 1.939,-1.691 0.311,-1.118 2.371,-1.032 3.204,-0.797 1,0.283 0.321,1.927 1.049,2.728 1.264,1.392 0.486,1.914 -0.652,2.857 0.603,0.857 2.882,2.445 2.253,3.701 -0.422,0.843 -3.567,2 -3.559,2.144 0.056,0.994 1.974,1.841 2.636,2.408 0.955,0.82 -1.332,2.281 -1.001,3.365 0.401,1.316 2.917,2.808 4.248,2.275 1.672,-0.669 1.422,0.304 0.79,1.417 -1.523,2.681 -4.432,4.033 -7.027,5.786 0.164,0.244 0.334,0.484 0.51,0.72 -0.969,0.139 -1.78,0.637 -2.688,0.955 -0.977,0.343 -1.601,-0.197 -2.523,-0.124 -1.399,0.11 -2.257,-1.056 -3.93,-0.903 0.671,-1.731 -2.197,-0.404 -2.229,-1.41 0.182,-0.312 0.468,-0.394 0.858,-0.246 -0.03,-0.567 -0.37,-0.887 -0.94,-0.864 0.478,0.734 0.066,0.842 -0.594,0.875 -1.083,0.054 -1.2,-0.01 -1.496,-1.307 0.391,2.583 -0.269,0.936 -1.94,0.936 -0.966,0 -1.756,-0.61 -2.699,-0.656 -1.156,-0.057 -2.423,1.249 -3.45,1.719 -0.8,0.367 -3.619,1.411 -3.442,2.5 -0.019,0.357 -0.125,0.689 -0.321,0.996 -0.449,0.4 -0.411,0.756 0.115,1.068 0.396,1.252 0.137,1.879 0.866,3.086 -0.687,0.197 -1.286,-0.149 -1.966,-0.108 -0.706,0.043 -1.064,0.605 -1.694,0.777 -1.521,0.415 -2.448,-1.16 -3.905,-0.099 -0.102,0.074 -2.128,-0.872 -2.346,-1.035 -0.566,-0.423 0.729,-0.369 -0.183,-0.978 -0.528,-0.353 -1.479,-0.508 -1.927,0.074 -0.208,-1.289 -1.635,-0.75 -2.411,-1.362 -1.07,-0.845 -3.259,-1.387 -2.919,0.643 -1.197,-0.173 -2.548,-0.475 -3.755,-0.253 -0.671,0.123 -1.119,0.313 -1.692,-0.203 -1.017,-0.914 -0.94,-0.538 -1.973,-0.552 -1.024,-0.014 -5.973,-3.26 -6.48,-1.944 -0.935,-0.386 -0.271,-1.066 -0.212,-1.721 0.07,-0.779 -2.195,-0.424 -2.668,-1.015 2.86,-1.059 3.102,-5.023 3.623,-7.601 0.205,-1.012 0.39,-2.607 1.231,-3.329 1.224,-1.052 -0.418,-1.2 -0.534,-0.014 -0.17,-2.436 0.32,-5.421 1.37,-7.632 1.011,0.569 2.017,1.244 2.45,2.376 0.098,0.504 0.194,1.008 0.29,1.512 0.234,0.641 0.875,0.729 0.86,1.512 0.29,-1.007 -0.732,-1.782 -0.825,-2.736 -0.144,-1.466 -0.659,-2.459 -1.959,-3.172 -0.545,-0.298 -1.153,-0.705 -1.607,-1.142 -0.739,-0.712 1.19,-0.357 1.582,-0.005 -0.908,-0.441 -0.957,-4.294 -0.43,-5.04 -1.193,0.835 -4,-0.808 -4.553,-1.915 -0.489,-0.979 -1.592,-1.488 -1.813,-2.631 -0.203,-1.043 1.71,-2.185 -0.693,-2.293 0.283,-0.333 0.338,-0.938 0.703,-1.192 0.914,-0.638 1.756,0.435 2.617,0.544 -1.528,-1.009 -2.135,-0.674 -3.729,-0.466 -0.803,0.105 -2.359,-1.08 -0.88,-1.262 -0.413,-0.407 -0.246,-0.671 0.5,-0.792 -1.135,-0.282 -2.748,0.642 -3.67,-0.36 0.508,-0.007 0.988,-0.127 1.44,-0.36 -0.904,-0.604 -2.57,-0.359 -2.81,0.864 -0.033,-0.8 -0.92,-1.548 -0.07,-2.231 -0.349,0.876 -1.92,0.819 -0.94,-0.288 -1.994,1.73 -4.668,-2.209 -6.69,-0.072 -0.808,-1.117 -1.483,-1.803 -2.875,-2.092" />

			<!-- Provinces, etc -->

		</g>
		<!-- /France all -->

	</defs>
	<!-- /Defs -->


	<!-- Visible group -->
	<g id="visibleGroup" transform="scale(12) translate(-1270,-252.5)">
		<!-- Aplicar cambios aquí. Ej: fill="red" opacity=".5" -->
		<use xlink:href="#France" />
	</g>

</svg>
